<svg width="640" height="420" viewBox="0 0 640 420" fill="none" xmlns="http://www.w3.org/2000/svg">
  <defs>
    <linearGradient id="bgSkin" x1="0" y1="0" x2="640" y2="420" gradientUnits="userSpaceOnUse">
      <stop stop-color="#FFFDFA"/>
      <stop offset="1" stop-color="#F7EAE4"/>
    </linearGradient>
    <radialGradient id="halo" cx="0" cy="0" r="1" gradientUnits="userSpaceOnUse" gradientTransform="translate(482 140) rotate(133) scale(160 140)">
      <stop stop-color="#F3CEC1" stop-opacity="0.48"/>
      <stop offset="1" stop-color="#F3CEC1" stop-opacity="0"/>
    </radialGradient>
    <linearGradient id="bottleGlass" x1="0" y1="0" x2="0" y2="1">
      <stop offset="0" stop-color="#FAFBFD" stop-opacity="0.98"/>
      <stop offset="1" stop-color="#E6DFDA" stop-opacity="0.98"/>
    </linearGradient>
    <linearGradient id="bottleFill" x1="0" y1="0" x2="0" y2="1">
      <stop offset="0" stop-color="#E3B4A7"/>
      <stop offset="1" stop-color="#BE8575"/>
    </linearGradient>
    <linearGradient id="capDark" x1="0" y1="0" x2="0" y2="1">
      <stop stop-color="#332D2A"/>
      <stop offset="1" stop-color="#1A1716"/>
    </linearGradient>
    <linearGradient id="jarBody" x1="0" y1="0" x2="1" y2="1">
      <stop stop-color="#F3DBD2"/>
      <stop offset="1" stop-color="#D3A496"/>
    </linearGradient>
    <linearGradient id="jarLid" x1="0" y1="0" x2="1" y2="1">
      <stop stop-color="#2F2A28"/>
      <stop offset="1" stop-color="#5B524E"/>
    </linearGradient>
    <filter id="softShadow" x="28" y="18" width="580" height="352" filterUnits="userSpaceOnUse" color-interpolation-filters="sRGB">
      <feFlood flood-opacity="0" result="BackgroundImageFix"/>
      <feColorMatrix in="SourceAlpha" type="matrix" values="0 0 0 0 0 0 0 0 0 0 0 0 0 0 0 0 0 0 127 0" result="hardAlpha"/>
      <feOffset dy="12"/>
      <feGaussianBlur stdDeviation="9"/>
      <feColorMatrix type="matrix" values="0 0 0 0 0.44 0 0 0 0 0.33 0 0 0 0 0.29 0 0 0 0.26 0"/>
      <feBlend mode="normal" in2="BackgroundImageFix" result="effect1_dropShadow_0_1"/>
      <feBlend mode="normal" in="SourceGraphic" in2="effect1_dropShadow_0_1" result="shape"/>
    </filter>
  </defs>

  <rect width="640" height="420" rx="30" fill="url(#bgSkin)"/>
  <ellipse cx="490" cy="324" rx="124" ry="30" fill="#E8D8D1"/>
  <ellipse cx="138" cy="330" rx="95" ry="24" fill="#EDDCD5"/>
  <circle cx="482" cy="140" r="148" fill="url(#halo)"/>

  <g filter="url(#softShadow)">
    <g transform="translate(310,54)">
      <rect x="24" y="0" width="88" height="58" rx="14" fill="url(#capDark)"/>
      <rect x="30" y="10" width="76" height="10" rx="5" fill="#A4968D" fill-opacity="0.55"/>

      <rect x="0" y="46" width="136" height="250" rx="34" fill="url(#bottleGlass)"/>
      <rect x="12" y="82" width="112" height="196" rx="26" fill="url(#bottleFill)" fill-opacity="0.9"/>
      <rect x="20" y="60" width="18" height="222" rx="9" fill="#FFFFFF" fill-opacity="0.48"/>
      <rect x="0" y="46" width="136" height="250" rx="34" stroke="#C9BAB3" stroke-opacity="0.7"/>

      <rect x="29" y="142" width="78" height="64" rx="10" fill="#F5ECE8" fill-opacity="0.85"/>
      <text x="42" y="168" fill="#6B4F46" font-family="Montserrat, Arial, sans-serif" font-size="15" font-weight="700" letter-spacing="0.05em">L'OREAL</text>
      <text x="44" y="188" fill="#8E7067" font-family="Montserrat, Arial, sans-serif" font-size="9" font-weight="600" letter-spacing="0.09em">REVITALIFT</text>
    </g>

    <g transform="translate(98,142)">
      <rect x="0" y="46" width="206" height="130" rx="26" fill="url(#jarBody)"/>
      <rect x="12" y="58" width="182" height="106" rx="21" fill="#F5E7E1" fill-opacity="0.55"/>
      <rect x="0" y="0" width="206" height="62" rx="20" fill="url(#jarLid)"/>
      <rect x="16" y="12" width="174" height="12" rx="6" fill="#AFA39D" fill-opacity="0.55"/>
      <rect x="44" y="86" width="118" height="48" rx="9" fill="#FFF7F3" fill-opacity="0.9"/>
      <text x="63" y="105" fill="#6D534A" font-family="Montserrat, Arial, sans-serif" font-size="13" font-weight="700" letter-spacing="0.05em">L'OREAL</text>
      <text x="73" y="121" fill="#8A6D62" font-family="Montserrat, Arial, sans-serif" font-size="8" font-weight="600" letter-spacing="0.1em">HYDRA CREAM</text>
    </g>
  </g>

  <text x="32" y="386" fill="#8B6B61" font-family="Montserrat, Arial, sans-serif" font-size="25" font-weight="700">
    Skincare Collection
  </text>
</svg>
